<mxfile host="app.diagrams.net" agent="Mozilla/5.0 (Windows NT 10.0; Win64; x64) AppleWebKit/537.36 (KHTML, like Gecko) Chrome/129.0.0.0 Safari/537.36" version="24.7.17">
  <diagram name="Page-1" id="e3a06f82-3646-2815-327d-82caf3d4e204">
    <mxGraphModel dx="1434" dy="772" grid="1" gridSize="10" guides="1" tooltips="1" connect="1" arrows="1" fold="1" page="1" pageScale="1.5" pageWidth="1169" pageHeight="826" background="none" math="0" shadow="0">
      <root>
        <mxCell id="0" style=";html=1;" />
        <mxCell id="1" style=";html=1;" parent="0" />
        <UserObject label="&lt;br&gt;&lt;div&gt;&lt;br/&gt;&lt;/div&gt;" id="R8DhF10whR4bV6vRvtgO-19">
          <mxCell style="whiteSpace=wrap;html=1;fillColor=#f5f5f5;fontSize=14;strokeColor=#666666;verticalAlign=top;fontColor=#333333;sketch=1;curveFitting=1;jiggle=2;" parent="1" vertex="1">
            <mxGeometry x="560" y="80" width="308" height="680" as="geometry" />
          </mxCell>
        </UserObject>
        <mxCell id="R8DhF10whR4bV6vRvtgO-110" value="" style="verticalLabelPosition=bottom;aspect=fixed;html=1;verticalAlign=top;strokeColor=none;align=center;outlineConnect=0;shape=mxgraph.citrix.command_center;rounded=0;fontFamily=Helvetica;fontSize=12;fontColor=default;fillColor=none;gradientColor=none;" parent="1" vertex="1">
          <mxGeometry x="756.25" y="90.05" width="75.5" height="96" as="geometry" />
        </mxCell>
        <UserObject label="&lt;br&gt;&lt;div&gt;&lt;br/&gt;&lt;/div&gt;" id="6a7d8f32e03d9370-57">
          <mxCell style="whiteSpace=wrap;html=1;fillColor=#f5f5f5;fontSize=14;strokeColor=#666666;verticalAlign=top;fontColor=#333333;sketch=1;curveFitting=1;jiggle=2;" parent="1" vertex="1">
            <mxGeometry x="170" y="80" width="308" height="680" as="geometry" />
          </mxCell>
        </UserObject>
        <mxCell id="6a7d8f32e03d9370-62" value="&lt;font data-font-src=&quot;https://fonts.googleapis.com/css?family=Kalam&quot; face=&quot;Kalam&quot;&gt;Ad Tech Ecosystem&lt;/font&gt;" style="text;strokeColor=none;fillColor=none;html=1;fontSize=24;fontStyle=1;verticalAlign=middle;align=center;" parent="1" vertex="1">
          <mxGeometry x="254.5" y="10" width="861" height="40" as="geometry" />
        </mxCell>
        <mxCell id="R8DhF10whR4bV6vRvtgO-2" value="" style="image;aspect=fixed;perimeter=ellipsePerimeter;html=1;align=center;shadow=0;dashed=0;spacingTop=3;image=img/lib/active_directory/user_accounts.svg;" parent="1" vertex="1">
          <mxGeometry x="238" y="179.5" width="50" height="48.5" as="geometry" />
        </mxCell>
        <mxCell id="R8DhF10whR4bV6vRvtgO-18" value="&lt;font style=&quot;font-size: 20px;&quot; face=&quot;Kalam&quot;&gt;Demand / Buy Side&lt;br&gt;&lt;/font&gt;" style="text;html=1;align=center;verticalAlign=middle;whiteSpace=wrap;rounded=0;" parent="1" vertex="1">
          <mxGeometry x="223" y="92" width="183" height="30" as="geometry" />
        </mxCell>
        <UserObject label="&lt;br&gt;&lt;div&gt;&lt;br/&gt;&lt;/div&gt;" id="R8DhF10whR4bV6vRvtgO-20">
          <mxCell style="whiteSpace=wrap;html=1;fillColor=#f5f5f5;fontSize=14;strokeColor=#666666;verticalAlign=top;fontColor=#333333;sketch=1;curveFitting=1;jiggle=2;" parent="1" vertex="1">
            <mxGeometry x="920" y="80" width="308" height="680" as="geometry" />
          </mxCell>
        </UserObject>
        <mxCell id="R8DhF10whR4bV6vRvtgO-38" value="&lt;font style=&quot;font-size: 14px;&quot; face=&quot;Kalam&quot;&gt;Publisher&lt;/font&gt;s" style="text;html=1;align=center;verticalAlign=middle;whiteSpace=wrap;rounded=0;" parent="1" vertex="1">
          <mxGeometry x="1040" y="188.75" width="130" height="30" as="geometry" />
        </mxCell>
        <mxCell id="R8DhF10whR4bV6vRvtgO-39" value="" style="image;aspect=fixed;perimeter=ellipsePerimeter;html=1;align=center;shadow=0;dashed=0;spacingTop=3;image=img/lib/active_directory/user_accounts.svg;direction=east;flipH=1;" parent="1" vertex="1">
          <mxGeometry x="1020" y="179.5" width="50" height="48.5" as="geometry" />
        </mxCell>
        <mxCell id="R8DhF10whR4bV6vRvtgO-46" value="&lt;font style=&quot;font-size: 20px;&quot; face=&quot;Kalam&quot;&gt;Supply / Sell Side&lt;br&gt;&lt;/font&gt;" style="text;html=1;align=center;verticalAlign=middle;whiteSpace=wrap;rounded=0;" parent="1" vertex="1">
          <mxGeometry x="990" y="92" width="183" height="30" as="geometry" />
        </mxCell>
        <mxCell id="R8DhF10whR4bV6vRvtgO-82" value="" style="verticalLabelPosition=bottom;aspect=fixed;html=1;verticalAlign=top;strokeColor=none;align=center;outlineConnect=0;shape=mxgraph.citrix.command_center;rounded=0;fontFamily=Helvetica;fontSize=12;fontColor=default;fillColor=none;gradientColor=none;" parent="1" vertex="1">
          <mxGeometry x="671.25" y="83.5" width="75.5" height="96" as="geometry" />
        </mxCell>
        <mxCell id="R8DhF10whR4bV6vRvtgO-93" value="&lt;div align=&quot;center&quot;&gt;&lt;font face=&quot;Kalam&quot; style=&quot;font-size: 14px;&quot; data-font-src=&quot;https://fonts.googleapis.com/css?family=Kalam&quot;&gt;Ad Network&lt;/font&gt;s&lt;/div&gt;" style="text;html=1;align=center;verticalAlign=middle;whiteSpace=wrap;rounded=0;" parent="1" vertex="1">
          <mxGeometry x="540.5" y="164.75" width="148.75" height="30" as="geometry" />
        </mxCell>
        <mxCell id="R8DhF10whR4bV6vRvtgO-103" value="" style="dashed=0;outlineConnect=0;html=1;align=center;labelPosition=center;verticalLabelPosition=bottom;verticalAlign=top;shape=mxgraph.weblogos.linkedin;fillColor=#0095DB;gradientColor=#006391;rounded=0;fontFamily=Helvetica;fontSize=12;fontColor=default;labelBackgroundColor=default;" parent="1" vertex="1">
          <mxGeometry x="1080" y="158" width="30" height="28.05" as="geometry" />
        </mxCell>
        <mxCell id="R8DhF10whR4bV6vRvtgO-105" value="" style="verticalLabelPosition=bottom;html=1;verticalAlign=top;align=center;strokeColor=none;fillColor=#00BEF2;shape=mxgraph.azure.website_generic;pointerEvents=1;rounded=0;fontFamily=Helvetica;fontSize=12;fontColor=default;labelBackgroundColor=default;" parent="1" vertex="1">
          <mxGeometry x="1120" y="153.5" width="53" height="42.5" as="geometry" />
        </mxCell>
        <mxCell id="R8DhF10whR4bV6vRvtgO-108" value="" style="verticalLabelPosition=bottom;aspect=fixed;html=1;verticalAlign=top;strokeColor=none;align=center;outlineConnect=0;shape=mxgraph.citrix.command_center;rounded=0;fontFamily=Helvetica;fontSize=12;fontColor=default;fillColor=none;gradientColor=none;" parent="1" vertex="1">
          <mxGeometry x="590" y="83.5" width="75.5" height="96" as="geometry" />
        </mxCell>
        <mxCell id="R8DhF10whR4bV6vRvtgO-112" value="" style="rounded=1;whiteSpace=wrap;html=1;align=center;verticalAlign=middle;fontFamily=Helvetica;fontSize=12;fontColor=default;labelBackgroundColor=default;fillColor=none;gradientColor=none;sketch=1;curveFitting=1;jiggle=2;" parent="1" vertex="1">
          <mxGeometry x="567.75" y="83.5" width="272.25" height="106.5" as="geometry" />
        </mxCell>
        <mxCell id="R8DhF10whR4bV6vRvtgO-109" value="" style="verticalLabelPosition=bottom;aspect=fixed;html=1;verticalAlign=top;strokeColor=none;align=center;outlineConnect=0;shape=mxgraph.citrix.command_center;rounded=0;fontFamily=Helvetica;fontSize=12;fontColor=default;fillColor=none;gradientColor=none;" parent="1" vertex="1">
          <mxGeometry x="675" y="90.05" width="75.5" height="96" as="geometry" />
        </mxCell>
        <mxCell id="sRcMFkfQTaIkU6m9mp1S-2" style="edgeStyle=orthogonalEdgeStyle;rounded=0;orthogonalLoop=1;jettySize=auto;html=1;entryX=1.029;entryY=0.446;entryDx=0;entryDy=0;entryPerimeter=0;sketch=1;curveFitting=1;jiggle=2;" parent="1" source="R8DhF10whR4bV6vRvtgO-39" target="R8DhF10whR4bV6vRvtgO-112" edge="1">
          <mxGeometry relative="1" as="geometry">
            <Array as="points">
              <mxPoint x="950" y="204" />
              <mxPoint x="950" y="131" />
            </Array>
          </mxGeometry>
        </mxCell>
        <mxCell id="0GeHo69V0teh65umw1fC-1" value="&lt;font face=&quot;Kalam&quot; style=&quot;font-size: 14px;&quot; data-font-src=&quot;https://fonts.googleapis.com/css?family=Kalam&quot;&gt;Ads&lt;br&gt;&lt;/font&gt;" style="text;html=1;align=center;verticalAlign=middle;whiteSpace=wrap;rounded=0;" parent="1" vertex="1">
          <mxGeometry x="180" y="146.48000000000002" width="130" height="30" as="geometry" />
        </mxCell>
        <mxCell id="0GeHo69V0teh65umw1fC-2" value="&lt;font face=&quot;Kalam&quot; style=&quot;font-size: 14px;&quot; data-font-src=&quot;https://fonts.googleapis.com/css?family=Kalam&quot;&gt;Advertiser&lt;br&gt;&lt;/font&gt;" style="text;html=1;align=center;verticalAlign=middle;whiteSpace=wrap;rounded=0;" parent="1" vertex="1">
          <mxGeometry x="158" y="218.75" width="130" height="30" as="geometry" />
        </mxCell>
        <mxCell id="0GeHo69V0teh65umw1fC-4" value="" style="dashed=0;outlineConnect=0;html=1;align=center;labelPosition=center;verticalLabelPosition=bottom;verticalAlign=top;shape=mxgraph.weblogos.apple;fillColor=#1B1C1C;strokeColor=none" parent="1" vertex="1">
          <mxGeometry x="200" y="143.45" width="29" height="36.05" as="geometry" />
        </mxCell>
        <mxCell id="0GeHo69V0teh65umw1fC-5" style="edgeStyle=orthogonalEdgeStyle;rounded=0;orthogonalLoop=1;jettySize=auto;html=1;entryX=0.012;entryY=0.437;entryDx=0;entryDy=0;entryPerimeter=0;sketch=1;curveFitting=1;jiggle=2;" parent="1" edge="1">
          <mxGeometry relative="1" as="geometry">
            <mxPoint x="288" y="204" as="sourcePoint" />
            <mxPoint x="571" y="130" as="targetPoint" />
            <Array as="points">
              <mxPoint x="430" y="204" />
              <mxPoint x="430" y="140" />
              <mxPoint x="571" y="140" />
            </Array>
          </mxGeometry>
        </mxCell>
      </root>
    </mxGraphModel>
  </diagram>
</mxfile>
